<svg xmlns="http://www.w3.org/2000/svg" xmlns:xlink="http://www.w3.org/1999/xlink" version="1.1" x="0px" y="0px" viewBox="0 0 100 100" enable-background="new 0 0 100 100" xml:space="preserve"><path d="M64.8588028,89.3975906H17.7008476c-2.6147251,0-4.7781773-2.150177-4.7781773-4.7781754v-69.230484  c0-2.6279974,2.1634521-4.7781773,4.7781773-4.7781773c7.1009026,0,5.9329033-1.3936348,5.9329033,10.9101715h1.3405457v-9.1449003  c0-0.9821806,0.7963619-1.7652712,1.7652702-1.7652712h11.1756248c0.9821815,0,1.765274,0.7830906,1.765274,1.7652712v9.1449003  h1.353817v-9.1449003c0-0.9821806,0.7830887-1.7652712,1.7652702-1.7652712h11.1756248  c0.9689102,0,1.7652702,0.7830906,1.7652702,1.7652712v9.1449003h1.353817v-9.1449003  c0-0.9821806,0.7830925-1.7652712,1.765274-1.7652712h11.1756248c0.9689102,0,1.765274,0.7830906,1.765274,1.7652712v9.1449003  h1.340538v-9.1449003c0-0.9821806,0.7963638-1.7652712,1.765274-1.7652712h7.379631  c2.6412659,0,4.7914505,2.1501799,4.7914505,4.7781773v50.6486816c-0.0132751,0.3583603-0.1194534,0.7432709-0.3583679,1.0618134  L77.9589767,78.474144L68.734436,88.7472305C67.9380722,89.6763153,66.5577087,89.3975906,64.8588028,89.3975906z   M66.6240768,85.8139572c10.2067184-11.3481674,8.1229019-8.7334442,16.7236176-20.1081619H66.6240768V85.8139572z"></path></svg>